<?xml version="1.0" encoding="utf-8"?>
<!-- Generator: Adobe Illustrator 27.5.0, SVG Export Plug-In . SVG Version: 6.00 Build 0)  -->
<svg version="1.1" id="Layer_1" xmlns="http://www.w3.org/2000/svg" xmlns:xlink="http://www.w3.org/1999/xlink" x="0px" y="0px"
	 viewBox="0 0 500 500" style="enable-background:new 0 0 500 500;" xml:space="preserve">
<g>
	<path style="fill:#323232;" d="M258.861,158.152c7.477,4.993,16.235,11,24.46,11.577c19.751,1.387,90.111,40.504,100.701,49.942
		c19.934,17.766,0.109,66.502-23.759,94.266c-21.398,24.892-66.734,62.319-109.701,62.319s-88.303-37.428-109.701-62.319
		c-23.868-27.764-43.693-76.5-23.759-94.266c10.589-9.438,80.95-48.555,100.701-49.942c8.225-0.578,16.983-6.585,24.46-11.577
		C247.286,154.797,253.837,154.797,258.861,158.152z"/>
	<path style="fill:#505050;" d="M248.753,205.664c3.084,7.635,4.501,15.926,5.114,24.136c0.621,8.239,0.548,16.442,0.449,24.597
		c-0.106,8.168-0.392,16.333-0.817,24.497c-0.428,8.163-1.007,16.325-2.009,24.48c-0.768-8.181-1.113-16.355-1.307-24.527
		c-0.191-8.172-0.243-16.342-0.115-24.51c0.092-8.179,0.492-16.317,0.498-24.409C250.573,221.829,250.132,213.765,248.753,205.664z"
		/>
	<path style="fill:#505050;" d="M298.052,201.721l-12.259-4.927l-12.278-4.874c-8.195-3.22-16.415-6.369-24.649-9.455l3.423-0.013
		c-1.951,1.022-4.06,1.689-6.104,2.504l-6.169,2.365l-12.327,4.772l-24.631,9.635c-0.744,0.293-1.585-0.072-1.878-0.817
		c-0.271-0.688,0.024-1.46,0.658-1.805c7.768-4.203,15.567-8.333,23.396-12.413l11.75-6.114l5.887-3.039
		c1.974-0.986,3.893-2.101,5.964-2.872l0.456-0.17c1.003-0.374,2.077-0.283,2.967,0.156c7.92,3.941,15.797,7.95,23.64,12.017
		c7.849,4.057,15.648,8.191,23.401,12.441c0.701,0.384,0.958,1.264,0.574,1.965c-0.356,0.65-1.138,0.918-1.809,0.648
		L298.052,201.721z"/>
	<g>
		<path style="fill:#323232;" d="M377.18,213.765c5.583-19.832,11.613-39.535,17.193-59.368c1.471-5.23,2.943-10.46,4.414-15.691
			c0.693-2.463,1.314-4.961,2.107-7.394c0.577-1.768,1.415-3.264,3.177-4.055c3.57-1.602,8.079-1.098,11.681,0.072
			c3.909,1.269,7.423,3.646,10.257,6.6c6.202,6.465,8.846,15.555,10.15,24.204c1.427,9.47,1.316,19.267,0.018,28.744
			c-2.557,18.66-9.568,36.818-20.129,52.397c-10.413,15.36-23.467,28.929-37.009,41.543c-1.524,1.419-3.059,2.825-4.605,4.221
			c-2.441,2.205,1.175,5.802,3.606,3.606c14.334-12.947,28.019-26.876,39.407-42.523c11.623-15.969,19.666-34.531,23.043-54.021
			c1.746-10.074,2.278-20.363,1.201-30.541c-1.017-9.603-3.239-19.542-8.999-27.499c-5.338-7.375-13.876-12.916-23.212-12.859
			c-4.77,0.029-10.034,1.426-12.373,5.978c-1.14,2.218-1.697,4.695-2.368,7.08c-0.758,2.694-1.516,5.389-2.274,8.083
			c-5.872,20.872-12.066,41.648-18.048,62.488c-0.725,2.524-1.443,5.05-2.155,7.578C371.371,215.574,376.29,216.925,377.18,213.765
			L377.18,213.765z"/>
	</g>
	<g>
		<path style="fill:#323232;" d="M127.922,213.014c-5.752-20.434-11.963-40.734-17.712-61.169
			c-1.538-5.468-3.076-10.936-4.615-16.404c-1.3-4.622-2.222-10.183-6.983-12.535c-8.605-4.251-19.266-0.416-26.097,5.399
			c-7.331,6.24-11.159,15.715-12.984,24.951c-1.97,9.97-2.244,20.302-1.191,30.396c2.081,19.961,9.04,39.693,20.064,56.475
			c10.73,16.333,24.415,30.722,38.658,44.016c1.62,1.512,3.253,3.009,4.897,4.494c2.43,2.195,6.048-1.401,3.606-3.606
			c-13.684-12.36-26.879-25.609-37.859-40.468c-11.295-15.285-19.193-32.711-22.833-51.4c-1.867-9.586-2.482-19.421-1.694-29.159
			c0.728-9.003,2.577-18.342,7.59-26.01c4.448-6.803,12.148-12.037,20.513-11.681c1.835,0.078,3.858,0.388,5.441,1.373
			c1.701,1.059,2.257,3.12,2.778,4.933c1.489,5.189,2.924,10.393,4.386,15.59c5.566,19.785,11.48,39.466,17.144,59.223
			c0.663,2.311,1.32,4.624,1.972,6.939C123.892,217.524,128.814,216.183,127.922,213.014L127.922,213.014z"/>
	</g>
</g>
</svg>
